# This file uses centimeters as units for non-parametric coordinates.

mtllib arrow.mtl
g default
v 0.266351 1.525452 -0.085600
v 0.266351 1.525452 0.114400
v -0.233631 1.529712 -0.085600
v -0.233631 1.529712 0.114400
v 0.261017 0.564600 0.116000
v 0.260852 0.564600 -0.084000
v -0.241760 0.564600 0.116000
v -0.243150 0.564600 -0.084000
v 0.000517 0.064600 0.116000
v 0.000517 0.064600 -0.084000
v 0.500000 0.564600 -0.084000
v 0.500000 0.564600 0.116000
v -0.500000 0.564600 -0.084000
v -0.500000 0.564600 0.116000
vt 0.289555 0.510642
vt 0.390552 0.510642
vt 0.391360 0.995857
vt 0.290363 0.995857
vt 0.629244 0.001992
vt 0.730241 0.001992
vt 0.729433 0.489358
vt 0.628436 0.489358
vt 0.177290 0.510642
vt 0.177290 0.763125
vt 0.076293 0.763125
vt 0.076293 0.510642
vt 0.102826 0.001992
vt 0.102826 0.122758
vt 0.102826 0.377271
vt 0.102826 0.506976
vt 0.001829 0.506976
vt 0.001829 0.376569
vt 0.001829 0.122675
vt 0.001829 0.001992
vt 0.361888 0.001992
vt 0.361888 0.122675
vt 0.361888 0.376569
vt 0.361888 0.506976
vt 0.109396 0.254223
vt 0.621408 0.254223
vt 0.368916 0.506976
vt 0.368916 0.377271
vt 0.368916 0.122758
vt 0.368916 0.001992
vt 0.916506 0.495175
vt 0.913729 0.980390
vt 0.659217 0.980390
vt 0.664024 0.493024
vt 0.650889 0.510642
vt 0.653582 0.995857
vt 0.401099 0.998008
vt 0.396994 0.510642
vt 0.283921 0.763134
vt 0.182924 0.763134
vt 0.182924 0.510642
vt 0.283921 0.510642
vt 0.182924 0.763134
vt 0.283921 0.763134
vn 0.008520 0.999964 0.000000
vn 0.008520 0.999964 0.000000
vn 0.008520 0.999964 0.000000
vn 0.008520 0.999964 0.000000
vn 0.999984 -0.005638 -0.000413
vn 0.999984 -0.005638 -0.000413
vn 0.999984 -0.005638 -0.000413
vn 0.999984 -0.005638 -0.000413
vn -0.999952 0.009148 0.003475
vn -0.999952 0.009148 0.003475
vn -0.999952 0.009148 0.003475
vn -0.999952 0.009148 0.003475
vn 0.000000 1.000000 -0.000000
vn 0.000000 1.000000 -0.000000
vn 0.000000 1.000000 -0.000000
vn 0.000000 1.000000 -0.000000
vn 0.000000 1.000000 -0.000000
vn 0.000000 1.000000 -0.000000
vn 0.000000 1.000000 -0.000000
vn 0.000000 1.000000 -0.000000
vn 0.707472 -0.706741 0.000000
vn 0.707472 -0.706741 0.000000
vn 0.707472 -0.706741 0.000000
vn 0.707472 -0.706741 0.000000
vn -0.706741 -0.707472 0.000000
vn -0.706741 -0.707472 0.000000
vn -0.706741 -0.707472 0.000000
vn -0.706741 -0.707472 0.000000
vn 0.000000 -0.000000 1.000000
vn 0.000000 -0.000000 1.000000
vn 0.000000 -0.000000 1.000000
vn 0.000000 -0.000000 1.000000
vn 0.000000 -0.000000 1.000000
vn 0.000000 0.000000 -1.000000
vn 0.000000 0.000000 -1.000000
vn 0.000000 0.000000 -1.000000
vn 0.000000 0.000000 -1.000000
vn 0.000000 0.000000 -1.000000
vn -0.000007 -0.001661 -0.999999
vn -0.000007 -0.001661 -0.999999
vn -0.000007 -0.001661 -0.999999
vn -0.000007 -0.001661 -0.999999
vn 0.000007 0.001661 0.999999
vn 0.000007 0.001661 0.999999
vn 0.000007 0.001661 0.999999
vn 0.000007 0.001661 0.999999
s off
g arrow:Mesh
usemtl arrow:Standard
f 1/9/1 3/10/2 4/11/3 2/12/4
f 5/1/5 6/2/6 1/3/7 2/4/8
f 8/5/9 7/6/10 4/7/11 3/8/12
f 11/13/13 6/14/14 8/15/15 13/16/16 14/17/17 7/18/18 5/19/19 12/20/20
f 11/39/21 12/40/22 9/41/23 10/42/24
f 14/43/25 13/44/26 10/42/27 9/41/28
f 12/21/29 5/22/30 7/23/31 14/24/32 9/25/33
f 10/26/34 13/27/35 8/28/36 6/29/37 11/30/38
f 1/31/39 6/32/40 8/33/41 3/34/42
f 5/35/43 2/36/44 4/37/45 7/38/46
